<?xml version="1.0" encoding="utf-8"?>
<!-- Generator: Adobe Illustrator 15.1.0, SVG Export Plug-In . SVG Version: 6.00 Build 0)  -->
<!DOCTYPE svg PUBLIC "-//W3C//DTD SVG 1.1//EN" "http://www.w3.org/Graphics/SVG/1.1/DTD/svg11.dtd">
<svg version="1.1" id="Layer_1" xmlns="http://www.w3.org/2000/svg" xmlns:xlink="http://www.w3.org/1999/xlink" x="0px" y="0px"
	 width="314.143px" height="321.238px" viewBox="0 0 314.143 321.238" enable-background="new 0 0 314.143 321.238"
	 xml:space="preserve">
<line fill="none" stroke="#000000" stroke-width="4" stroke-miterlimit="10" x1="161.363" y1="155.476" x2="25.109" y2="76.81"/>
<line fill="none" stroke="#000000" stroke-width="4" stroke-miterlimit="10" x1="161.363" y1="155.477" x2="161.364" y2="312.81"/>
<line fill="none" stroke="#000000" stroke-width="4" stroke-miterlimit="10" x1="161.363" y1="155.478" x2="297.618" y2="76.811"/>
<path fill="none" stroke="#000000" stroke-width="4" stroke-miterlimit="10" d="M143.629,143.522
	c3.146-0.715,2.506-3.652,4.82-5.682c2.434-2.134,3.969-2.697,7.383-3.479c6.856-1.568,9.333-0.055,15.478,3.587
	c9.693,5.745,14.426,18.509,11.245,28.819c-2.07,6.711-12.146,25.608-17.124,27.92c-9.235,4.289-23.312-6.447-31.087-11.108
	c-10.632-6.374-20.978-22.323-21.658-34.786c-0.596-10.914,3.126-19.756,8.459-28.992c3.305-5.725,5.838-11.114,11.473-14.797
	c4.434-2.898,7.021-3.021,12.675-4.984c5.341-1.857,12.036-5.146,17.489-4.729c6.572,0.501,13.834,4.817,19.734,7.598
	c10.471,4.932,23.51,9.25,32.695,16.512c7.561,5.977,8.593,18.453,9.241,27.771c0.448,6.432,1.729,13.484,1.206,19.971
	c-0.863,10.723-6.213,20.3-11.148,29.644c-7.394,13.99-21.792,14.681-32.668,24.179c-14.005,12.232-41.5,8.975-59.146,5.775
	c-26.639-4.829-51.137-32.301-53.965-58.895c-1.496-14.057-4.145-26.76,1.062-40.46c4.427-11.653,8.549-24.062,16.028-34.429
	c14.817-20.537,43.925-33.702,68.177-35.096c31.509-1.811,56.24,13.266,82.663,28.521c36.235,20.92,45.956,64.983,27.911,102.351
	c-15.938,33.01-39.527,66.515-75.1,79.421c-10.561,3.832-20.821,6.741-32.107,4.734c-16.144-2.87-31.525-7.485-46.479-13.765
	c-11.588-4.866-24.194-5.612-35.468-10.991c-19.01-9.07-28.455-23.359-37.16-41.838c-11.506-24.419-5.674-51.257-2.34-76.455
	c1.828-13.817,2.135-22.145,9.396-34.695c3.324-5.746,6.586-11.461,10.354-16.895c14.65-21.129,29.06-44.967,53.369-55.602
	c10.234-4.478,23.727-9.057,35.119-8.128c9.221,0.753,18.834,5.303,27.809,5.257"/>
<rect x="140.833" y="29.445" fill="none" width="112.667" height="27.333"/>
<text transform="matrix(1 0 0 1 140.8335 44.4448)" font-family="'Roboto-Bold'" font-size="20">Plan</text>
<rect x="248.333" y="256.21" fill="none" width="112.667" height="27.333"/>
<text transform="matrix(1 0 0 1 248.3335 271.2104)" font-family="'Roboto-Bold'" font-size="20">Build</text>
<rect x="25.109" y="255.71" fill="none" width="112.667" height="27.333"/>
<text transform="matrix(1 0 0 1 25.1094 270.7104)" font-family="'Roboto-Bold'" font-size="20">Test</text>
</svg>
